<?xml version="1.0" encoding="utf-8"?>
<!-- Generator: Adobe Illustrator 24.1.1, SVG Export Plug-In . SVG Version: 6.00 Build 0)  -->
<svg version="1.1" id="Слой_1" xmlns="http://www.w3.org/2000/svg" xmlns:xlink="http://www.w3.org/1999/xlink" x="0px" y="0px"
	 viewBox="0 0 136.9 42.1" style="enable-background:new 0 0 136.9 42.1;" xml:space="preserve">
<style type="text/css">
	.st0{fill:#010202;}
	.st1{fill:#A6A6A6;}
	.st2{fill:#FFFFFF;}
	.st3{fill:url(#SVGID_1_);}
	.st4{fill:url(#SVGID_2_);}
	.st5{fill:url(#SVGID_3_);}
	.st6{fill:url(#SVGID_4_);}
	.st7{opacity:0.2;fill:#020203;enable-background:new    ;}
	.st8{opacity:0.12;fill:#020203;enable-background:new    ;}
	.st9{opacity:0.25;fill:#FFFFFF;enable-background:new    ;}
	.st10{fill:#FFFFFF;stroke:#FFFFFF;stroke-width:0.2;stroke-miterlimit:10;}
</style>
<g>
	<g>
		<path class="st0" d="M131.1,41H6.1c-2.8,0-5-2.3-5-5V6c0-2.7,2.3-5,5-5h125c2.8,0,5,2.3,5,5v30C136.1,38.8,133.9,41,131.1,41z"/>
	</g>
	<g>
		<g>
			<path class="st1" d="M131.1,1.8c2.3,0,4.2,1.9,4.2,4.2v30c0,2.3-1.9,4.2-4.2,4.2H6.1c-2.3,0-4.2-1.9-4.2-4.2V6
				c0-2.3,1.9-4.2,4.2-4.2H131.1 M131.1,1H6.1c-2.8,0-5,2.3-5,5v30c0,2.8,2.3,5,5,5h125c2.8,0,5-2.3,5-5V6
				C136.1,3.3,133.9,1,131.1,1L131.1,1z"/>
		</g>
	</g>
	<path class="st2" d="M69.2,22.8c-2.4,0-4.3,1.8-4.3,4.3c0,2.4,1.9,4.3,4.3,4.3c2.4,0,4.3-1.8,4.3-4.3
		C73.5,24.6,71.6,22.8,69.2,22.8z M69.2,29.6c-1.3,0-2.4-1.1-2.4-2.6c0-1.5,1.1-2.6,2.4-2.6s2.4,1,2.4,2.6
		C71.6,28.5,70.5,29.6,69.2,29.6z M59.9,22.8c-2.4,0-4.3,1.8-4.3,4.3c0,2.4,1.9,4.3,4.3,4.3c2.4,0,4.3-1.8,4.3-4.3
		C64.2,24.6,62.3,22.8,59.9,22.8z M59.9,29.6c-1.3,0-2.4-1.1-2.4-2.6c0-1.5,1.1-2.6,2.4-2.6c1.3,0,2.4,1,2.4,2.6
		C62.3,28.5,61.2,29.6,59.9,29.6z M48.9,24.1v1.8h4.3c-0.1,1-0.5,1.8-1,2.3c-0.6,0.6-1.6,1.3-3.3,1.3c-2.7,0-4.7-2.1-4.7-4.8
		s2.1-4.8,4.7-4.8c1.4,0,2.5,0.6,3.3,1.3l1.3-1.3c-1.1-1-2.5-1.8-4.5-1.8c-3.6,0-6.7,3-6.7,6.6c0,3.6,3.1,6.6,6.7,6.6
		c2,0,3.4-0.6,4.6-1.9c1.2-1.2,1.6-2.9,1.6-4.2c0-0.4,0-0.8-0.1-1.1H48.9z M94.2,25.5c-0.4-1-1.4-2.7-3.6-2.7c-2.2,0-4,1.7-4,4.3
		c0,2.4,1.8,4.3,4.2,4.3c1.9,0,3.1-1.2,3.5-1.9l-1.4-1c-0.5,0.7-1.1,1.2-2.1,1.2c-1,0-1.6-0.4-2.1-1.3l5.7-2.4L94.2,25.5z
		 M88.4,26.9c0-1.6,1.3-2.5,2.2-2.5c0.7,0,1.4,0.4,1.6,0.9L88.4,26.9z M83.7,31h1.9V18.5h-1.9V31z M80.7,23.7L80.7,23.7
		c-0.5-0.5-1.3-1-2.3-1c-2.1,0-4.1,1.9-4.1,4.3c0,2.4,1.9,4.2,4.1,4.2c1,0,1.8-0.5,2.2-1h0.1v0.6c0,1.6-0.9,2.5-2.3,2.5
		c-1.1,0-1.9-0.8-2.1-1.5l-1.6,0.7c0.5,1.1,1.7,2.5,3.8,2.5c2.2,0,4-1.3,4-4.4V23h-1.8V23.7z M78.5,29.6c-1.3,0-2.4-1.1-2.4-2.6
		c0-1.5,1.1-2.6,2.4-2.6c1.3,0,2.3,1.1,2.3,2.6C80.8,28.5,79.8,29.6,78.5,29.6z M102.9,18.5h-4.5V31h1.9v-4.7h2.6
		c2.1,0,4.1-1.5,4.1-3.9S105,18.5,102.9,18.5z M103,24.6h-2.7v-4.3h2.7c1.4,0,2.2,1.2,2.2,2.1C105.2,23.4,104.4,24.6,103,24.6z
		 M114.5,22.8c-1.4,0-2.8,0.6-3.3,1.9l1.7,0.7c0.4-0.7,1-0.9,1.7-0.9c1,0,1.9,0.6,2,1.6v0.1c-0.3-0.2-1.1-0.5-1.9-0.5
		c-1.8,0-3.6,1-3.6,2.8c0,1.7,1.5,2.8,3.1,2.8c1.3,0,1.9-0.6,2.4-1.2h0.1v1h1.8v-4.8C118.3,24,116.6,22.8,114.5,22.8z M114.3,29.6
		c-0.6,0-1.5-0.3-1.5-1.1c0-1,1.1-1.3,2-1.3c0.8,0,1.2,0.2,1.7,0.4C116.3,28.8,115.3,29.6,114.3,29.6z M124.9,23l-2.1,5.4h-0.1
		l-2.2-5.4h-2l3.3,7.6l-1.9,4.2h1.9l5.1-11.8H124.9z M108,31h1.9V18.5H108V31z"/>
	<g>
		
			<linearGradient id="SVGID_1_" gradientUnits="userSpaceOnUse" x1="22.9093" y1="35.3172" x2="6.1269" y2="18.5348" gradientTransform="matrix(1 0 0 -1 0 45.0538)">
			<stop  offset="0" style="stop-color:#4696D2"/>
			<stop  offset="6.574450e-03" style="stop-color:#4598D3"/>
			<stop  offset="0.2601" style="stop-color:#3FB9EB"/>
			<stop  offset="0.5122" style="stop-color:#4AC1ED"/>
			<stop  offset="0.7604" style="stop-color:#5CC4E6"/>
			<stop  offset="1" style="stop-color:#60C4E5"/>
		</linearGradient>
		<path class="st3" d="M11.5,8.6c-0.3,0.3-0.5,0.8-0.5,1.4v22.1c0,0.6,0.2,1.1,0.5,1.4l0.1,0.1L24,21.2V21v-0.1L11.5,8.6L11.5,8.6z"
			/>
		
			<linearGradient id="SVGID_2_" gradientUnits="userSpaceOnUse" x1="34.9439" y1="24.0254" x2="10.747" y2="24.0254" gradientTransform="matrix(1 0 0 -1 0 45.0538)">
			<stop  offset="0" style="stop-color:#FFE00A"/>
			<stop  offset="0.4087" style="stop-color:#FBBC0F"/>
			<stop  offset="0.7754" style="stop-color:#F7A418"/>
			<stop  offset="1" style="stop-color:#F59A1B"/>
		</linearGradient>
		<path class="st4" d="M28.1,25.3L24,21.2V21v-0.1l4.1-4.1l0.1,0.1l4.9,2.8c1.4,0.8,1.4,2.1,0,2.9L28.1,25.3L28.1,25.3z"/>
		
			<linearGradient id="SVGID_3_" gradientUnits="userSpaceOnUse" x1="25.9365" y1="21.7308" x2="3.1782" y2="-1.0275" gradientTransform="matrix(1 0 0 -1 0 45.0538)">
			<stop  offset="0" style="stop-color:#E8404A"/>
			<stop  offset="1" style="stop-color:#C31262"/>
		</linearGradient>
		<path class="st5" d="M28.2,25.3L24,21L11.5,33.5c0.5,0.5,1.2,0.5,2.1,0.1L28.2,25.3"/>
		
			<linearGradient id="SVGID_4_" gradientUnits="userSpaceOnUse" x1="8.4069" y1="43.8507" x2="18.5694" y2="33.6882" gradientTransform="matrix(1 0 0 -1 0 45.0538)">
			<stop  offset="0" style="stop-color:#32A071"/>
			<stop  offset="6.850000e-02" style="stop-color:#2DA771"/>
			<stop  offset="0.4762" style="stop-color:#4FB26F"/>
			<stop  offset="0.8009" style="stop-color:#61B668"/>
			<stop  offset="1" style="stop-color:#64B664"/>
		</linearGradient>
		<path class="st6" d="M28.2,16.8L13.6,8.5C12.8,8,12,8.1,11.5,8.6L24,21L28.2,16.8z"/>
		<g>
			<path class="st7" d="M28.1,25.2l-14.5,8.2c-0.8,0.5-1.5,0.4-2,0l0,0l-0.1,0.1l0,0l0.1,0.1l0,0c0.5,0.4,1.2,0.5,2,0L28.1,25.2
				L28.1,25.2z"/>
			<path class="st8" d="M11.5,33.3c-0.3-0.3-0.5-0.8-0.5-1.4v0.1c0,0.6,0.2,1.1,0.5,1.4V33.3L11.5,33.3z"/>
		</g>
		<path class="st8" d="M33.1,22.3l-5,2.8l0.1,0.1l4.9-2.8c0.7-0.4,1-0.9,1-1.4l0,0C34.1,21.5,33.8,22,33.1,22.3z"/>
		<path class="st9" d="M13.6,8.7l19.5,11.1c0.6,0.4,1,0.8,1,1.3l0,0c0-0.5-0.3-1-1-1.4L13.6,8.5c-1.4-0.8-2.5-0.1-2.5,1.5v0.1
			C11.1,8.5,12.2,7.9,13.6,8.7z"/>
	</g>
	<g>
		<path class="st10" d="M43.2,15.3h-0.7v-2h0.6c0.5-0.4,0.8-1.2,0.8-2.3V8h4v5.3h0.7v2h-0.7V14h-4.6V15.3z M44.6,11
			c0,0.9-0.2,1.7-0.6,2.3h3V8.8h-2.5V11z"/>
		<path class="st10" d="M54.5,13.3c-0.6,0.6-1.3,0.9-2.2,0.9c-0.9,0-1.6-0.3-2.2-0.9c-0.6-0.6-0.9-1.3-0.9-2.2s0.3-1.6,0.9-2.2
			c0.6-0.6,1.3-0.9,2.2-0.9c0.9,0,1.6,0.3,2.2,0.9c0.6,0.6,0.9,1.3,0.9,2.2C55.4,11.9,55.1,12.6,54.5,13.3z M50.7,12.7
			c0.4,0.4,1,0.7,1.6,0.7c0.6,0,1.2-0.2,1.6-0.7c0.4-0.4,0.7-1,0.7-1.7S54.4,9.8,54,9.3c-0.4-0.4-1-0.7-1.6-0.7
			c-0.6,0-1.2,0.2-1.6,0.7c-0.4,0.4-0.7,1-0.7,1.7S50.3,12.3,50.7,12.7z"/>
		<path class="st10" d="M59.3,14.2c-0.9,0-1.6-0.3-2.2-0.9c-0.6-0.6-0.9-1.3-0.9-2.2c0-0.9,0.3-1.6,0.9-2.2c0.6-0.6,1.3-0.9,2.2-0.9
			c0.9,0,1.6,0.3,2.2,1L61,9.4c-0.4-0.5-1-0.8-1.7-0.8c-0.7,0-1.2,0.2-1.7,0.7c-0.5,0.4-0.7,1-0.7,1.7s0.2,1.3,0.7,1.7
			c0.4,0.4,1,0.7,1.7,0.7c0.7,0,1.3-0.3,1.8-0.9l0.5,0.5c-0.3,0.3-0.6,0.6-1,0.8C60.2,14.1,59.8,14.2,59.3,14.2z"/>
		<path class="st10" d="M64.8,14H64V8.8h-1.7V8h4.1v0.7h-1.7V14z"/>
		<path class="st10" d="M71.8,8l-2.3,5.1c-0.3,0.7-0.8,1.1-1.4,1.1c-0.2,0-0.4,0-0.6-0.1l0.2-0.7c0.1,0.1,0.3,0.1,0.4,0.1
			c0.2,0,0.3,0,0.4-0.1c0.1-0.1,0.2-0.2,0.3-0.4l0.2-0.5L67,8h0.9l1.5,3.4h0L70.9,8H71.8z"/>
		<path class="st10" d="M72.6,14V8H77v6h-0.8V8.8h-2.8V14H72.6z"/>
		<path class="st10" d="M78.3,14V8h0.8v2.6h3V8h0.8v6h-0.8v-2.7h-3V14H78.3z"/>
		<path class="st10" d="M89.2,13.3c-0.6,0.6-1.3,0.9-2.2,0.9c-0.9,0-1.6-0.3-2.2-0.9c-0.6-0.6-0.9-1.3-0.9-2.2s0.3-1.6,0.9-2.2
			c0.6-0.6,1.3-0.9,2.2-0.9c0.9,0,1.6,0.3,2.2,0.9c0.6,0.6,0.9,1.3,0.9,2.2C90.1,11.9,89.8,12.6,89.2,13.3z M85.3,12.7
			c0.4,0.4,1,0.7,1.6,0.7c0.6,0,1.2-0.2,1.6-0.7c0.4-0.4,0.7-1,0.7-1.7S89,9.8,88.6,9.3c-0.4-0.4-1-0.7-1.6-0.7
			c-0.6,0-1.2,0.2-1.6,0.7c-0.4,0.4-0.7,1-0.7,1.7S84.9,12.3,85.3,12.7z"/>
		<path class="st10" d="M93.2,14V8h2.2c0.5,0,0.9,0.2,1.2,0.5c0.3,0.3,0.5,0.7,0.5,1.2c0,0.3-0.1,0.5-0.2,0.8
			c-0.1,0.2-0.3,0.4-0.6,0.5v0c0.3,0.1,0.5,0.3,0.7,0.5c0.2,0.2,0.3,0.5,0.3,0.9c0,0.5-0.2,0.9-0.5,1.2C96.4,13.9,96,14,95.5,14
			H93.2z M94,10.6h1.4c0.3,0,0.5-0.1,0.7-0.3c0.2-0.2,0.3-0.4,0.3-0.6S96.3,9.2,96.1,9c-0.2-0.2-0.4-0.3-0.7-0.3H94V10.6z M94,13.3
			h1.6c0.3,0,0.5-0.1,0.7-0.3c0.2-0.2,0.3-0.4,0.3-0.7c0-0.2-0.1-0.5-0.3-0.7c-0.2-0.2-0.4-0.3-0.7-0.3H94V13.3z"/>
	</g>
</g>
</svg>
