<?xml version="1.0" encoding="utf-8"?>
<!-- Generator: Adobe Illustrator 24.1.1, SVG Export Plug-In . SVG Version: 6.00 Build 0)  -->
<svg version="1.1" id="Слой_1" xmlns="http://www.w3.org/2000/svg" xmlns:xlink="http://www.w3.org/1999/xlink" x="0px" y="0px"
	 viewBox="0 0 136.9 42.1" style="enable-background:new 0 0 136.9 42.1;" xml:space="preserve">
<style type="text/css">
	.st0{fill:#010202;}
	.st1{fill:#A6A6A6;}
	.st2{fill:#FFFFFF;stroke:#FFFFFF;stroke-width:0.2;stroke-miterlimit:10;}
	.st3{fill:#FFFFFF;}
</style>
<g>
	<g>
		<path class="st0" d="M131.1,41H6.1c-2.8,0-5-2.3-5-5V6c0-2.7,2.3-5,5-5h125c2.8,0,5,2.3,5,5v30C136.1,38.8,133.9,41,131.1,41z"/>
	</g>
	<g>
		<g>
			<path class="st1" d="M131.1,1.8c2.3,0,4.2,1.9,4.2,4.2v30c0,2.3-1.9,4.2-4.2,4.2H6.1c-2.3,0-4.2-1.9-4.2-4.2V6
				c0-2.3,1.9-4.2,4.2-4.2H131.1 M131.1,1H6.1c-2.8,0-5,2.3-5,5v30c0,2.8,2.3,5,5,5h125c2.8,0,5-2.3,5-5V6
				C136.1,3.3,133.9,1,131.1,1L131.1,1z"/>
		</g>
	</g>
	<g>
		<path class="st2" d="M44.9,15.3h-0.7v-2h0.6c0.5-0.4,0.8-1.2,0.8-2.3V8h4v5.3h0.7v2h-0.7V14h-4.6V15.3z M46.2,11
			c0,0.9-0.2,1.7-0.6,2.3h3V8.8h-2.5V11z"/>
		<path class="st2" d="M56.2,13.3c-0.6,0.6-1.3,0.9-2.2,0.9c-0.9,0-1.6-0.3-2.2-0.9c-0.6-0.6-0.9-1.3-0.9-2.2s0.3-1.6,0.9-2.2
			c0.6-0.6,1.3-0.9,2.2-0.9c0.9,0,1.6,0.3,2.2,0.9C56.7,9.4,57,10.2,57,11C57,11.9,56.7,12.6,56.2,13.3z M52.3,12.7
			c0.4,0.4,1,0.7,1.6,0.7c0.6,0,1.2-0.2,1.6-0.7c0.4-0.4,0.7-1,0.7-1.7S56,9.8,55.6,9.3c-0.4-0.4-1-0.7-1.6-0.7
			c-0.6,0-1.2,0.2-1.6,0.7c-0.4,0.4-0.7,1-0.7,1.7S51.9,12.3,52.3,12.7z"/>
		<path class="st2" d="M60.9,14.2c-0.9,0-1.6-0.3-2.2-0.9c-0.6-0.6-0.9-1.3-0.9-2.2c0-0.9,0.3-1.6,0.9-2.2c0.6-0.6,1.3-0.9,2.2-0.9
			c0.9,0,1.6,0.3,2.2,1l-0.5,0.5c-0.4-0.5-1-0.8-1.7-0.8c-0.7,0-1.2,0.2-1.7,0.7c-0.5,0.4-0.7,1-0.7,1.7s0.2,1.3,0.7,1.7
			c0.4,0.4,1,0.7,1.7,0.7c0.7,0,1.3-0.3,1.8-0.9l0.5,0.5c-0.3,0.3-0.6,0.6-1,0.8C61.9,14.1,61.4,14.2,60.9,14.2z"/>
		<path class="st2" d="M66.4,14h-0.8V8.8H64V8h4.1v0.7h-1.7V14z"/>
		<path class="st2" d="M73.4,8l-2.3,5.1c-0.3,0.7-0.8,1.1-1.4,1.1c-0.2,0-0.4,0-0.6-0.1l0.2-0.7c0.1,0.1,0.3,0.1,0.4,0.1
			c0.2,0,0.3,0,0.4-0.1c0.1-0.1,0.2-0.2,0.3-0.4l0.2-0.5l-2-4.4h0.9l1.5,3.4h0L72.5,8H73.4z"/>
		<path class="st2" d="M74.3,14V8h4.3v6h-0.8V8.8H75V14H74.3z"/>
		<path class="st2" d="M80,14V8h0.8v2.6h3V8h0.8v6h-0.8v-2.7h-3V14H80z"/>
		<path class="st2" d="M90.8,13.3c-0.6,0.6-1.3,0.9-2.2,0.9c-0.9,0-1.6-0.3-2.2-0.9c-0.6-0.6-0.9-1.3-0.9-2.2s0.3-1.6,0.9-2.2
			c0.6-0.6,1.3-0.9,2.2-0.9c0.9,0,1.6,0.3,2.2,0.9c0.6,0.6,0.9,1.3,0.9,2.2C91.7,11.9,91.4,12.6,90.8,13.3z M87,12.7
			c0.4,0.4,1,0.7,1.6,0.7s1.2-0.2,1.6-0.7c0.4-0.4,0.7-1,0.7-1.7s-0.2-1.3-0.7-1.7c-0.4-0.4-1-0.7-1.6-0.7S87.4,8.9,87,9.3
			c-0.4,0.4-0.7,1-0.7,1.7S86.5,12.3,87,12.7z"/>
		<path class="st2" d="M94.8,14V8H97c0.5,0,0.9,0.2,1.2,0.5c0.3,0.3,0.5,0.7,0.5,1.2c0,0.3-0.1,0.5-0.2,0.8
			c-0.1,0.2-0.3,0.4-0.6,0.5v0c0.3,0.1,0.5,0.3,0.7,0.5c0.2,0.2,0.3,0.5,0.3,0.9c0,0.5-0.2,0.9-0.5,1.2C98,13.9,97.6,14,97.1,14
			H94.8z M95.6,10.6H97c0.3,0,0.5-0.1,0.7-0.3c0.2-0.2,0.3-0.4,0.3-0.6S97.9,9.2,97.7,9c-0.2-0.2-0.4-0.3-0.7-0.3h-1.4V10.6z
			 M95.6,13.3h1.6c0.3,0,0.5-0.1,0.7-0.3c0.2-0.2,0.3-0.4,0.3-0.7c0-0.2-0.1-0.5-0.3-0.7c-0.2-0.2-0.4-0.3-0.7-0.3h-1.5V13.3z"/>
	</g>
	<g>
		<path class="st3" d="M35.8,27.7c-0.6,1.4-0.9,2-1.7,3.3c-1.1,1.7-2.7,3.9-4.7,3.9c-1.8,0-2.2-1.1-4.6-1.1c-2.4,0-2.9,1.2-4.7,1.1
			c-2,0-3.5-2-4.6-3.7c-3.2-4.8-3.5-10.5-1.5-13.5c1.4-2.1,3.6-3.4,5.6-3.4c2.1,0,3.4,1.2,5.2,1.2c1.7,0,2.7-1.2,5.1-1.2
			c1.8,0,3.8,1,5.2,2.7C30.5,19.4,31.2,25.9,35.8,27.7z"/>
		<g>
			<path class="st3" d="M28,12.3c0.9-1.1,1.6-2.7,1.3-4.4c-1.4,0.1-3.1,1-4.1,2.2c-0.9,1.1-1.6,2.7-1.3,4.3
				C25.5,14.4,27.1,13.5,28,12.3z"/>
		</g>
	</g>
	<g>
		<path class="st3" d="M47.7,20.3l-3.6,10.6h1.6l1.1-3.2h3.5l1.1,3.2h1.7l-3.6-10.6H47.7z M48.6,22.1c0.1,0.5,0.3,1,0.4,1.5l1,2.8
			h-2.8l1-2.8C48.3,23.1,48.4,22.6,48.6,22.1z"/>
		<path class="st3" d="M57.8,23.1c-1.1,0-2,0.4-2.5,1.2l-0.1-1.1h-1.5l0,0.1c0,0.7,0.1,1.4,0.1,2.4V34h1.6v-3.8
			c0.5,0.6,1.3,0.9,2.2,0.9c0.9,0,1.8-0.4,2.4-1c0.7-0.7,1.1-1.8,1.1-3.1c0-1.1-0.3-2.1-0.9-2.8C59.5,23.5,58.7,23.1,57.8,23.1z
			 M57.4,24.4c1.4,0,2.1,1.3,2.1,2.6c0,1.7-0.8,2.7-2.1,2.7c-0.9,0-1.7-0.6-1.9-1.5c0-0.1-0.1-0.3-0.1-0.5v-1.3c0-0.1,0-0.3,0.1-0.4
			c0,0,0-0.1,0-0.1C55.7,25.1,56.5,24.4,57.4,24.4z"/>
		<path class="st3" d="M66,23.1c-1.1,0-2,0.4-2.5,1.2l-0.1-1.1h-1.5l0,0.1c0,0.7,0.1,1.4,0.1,2.4V34h1.6v-3.8
			c0.5,0.6,1.3,0.9,2.2,0.9c0.9,0,1.8-0.4,2.4-1c0.7-0.7,1.1-1.8,1.1-3.1c0-1.1-0.3-2.1-0.9-2.8C67.7,23.5,66.9,23.1,66,23.1z
			 M65.6,24.4c1.4,0,2.1,1.3,2.1,2.6c0,1.7-0.8,2.7-2.1,2.7c-0.9,0-1.7-0.6-1.9-1.5c0-0.1-0.1-0.3-0.1-0.5v-1.3c0-0.1,0-0.3,0.1-0.4
			c0,0,0-0.1,0-0.1C63.9,25.1,64.7,24.4,65.6,24.4z"/>
		<path class="st3" d="M76.3,24.8c-1.5-0.6-2-1-2-1.9c0-0.7,0.6-1.4,1.8-1.4c1,0,1.7,0.4,1.9,0.5l0.1,0.1l0.5-1.3l-0.1-0.1
			c-0.3-0.2-1-0.5-2.3-0.5c-2,0-3.5,1.2-3.5,2.9c0,1.4,0.9,2.4,2.8,3.1c1.4,0.5,1.9,1,1.9,1.9c0,1-0.8,1.6-2,1.6
			c-0.8,0-1.7-0.2-2.3-0.7L72.9,29l-0.4,1.4l0.1,0.1c0.6,0.4,1.7,0.7,2.7,0.7c2.7,0,3.7-1.7,3.7-3.1C79,26.5,78.2,25.6,76.3,24.8z"
			/>
		<path class="st3" d="M81.9,21.4l-1.6,0.5v1.3h-1.1v1.3h1.1v3.9c0,0.9,0.2,1.6,0.6,2c0.4,0.4,0.9,0.6,1.5,0.6c0.6,0,1-0.1,1.2-0.2
			l0.1,0l-0.1-1.3l-0.2,0c-0.2,0.1-0.4,0.1-0.7,0.1c-0.6,0-0.9-0.4-0.9-1.3v-3.9h1.9v-1.3h-1.9V21.4z"/>
		<path class="st3" d="M87.8,23.1c-2.2,0-3.8,1.7-3.8,4.1c0,2.3,1.5,3.9,3.7,3.9h0c1.8,0,3.8-1.3,3.8-4.1c0-1.1-0.4-2.1-1-2.8
			C89.8,23.5,88.9,23.1,87.8,23.1z M87.7,24.4c1.4,0,2.1,1.4,2.1,2.7c0,1.6-0.9,2.8-2.1,2.8h0c-1.2,0-2.1-1.1-2.1-2.7
			C85.6,25.7,86.3,24.4,87.7,24.4z"/>
		<path class="st3" d="M96.4,23.2L96.4,23.2c-0.2-0.1-0.4-0.1-0.5-0.1c-0.8,0-1.6,0.5-2,1.3l0-1.1h-1.4l0,0.1c0,0.6,0.1,1.3,0.1,2.3
			l0,5.2h1.6v-4.1c0-0.2,0-0.4,0-0.6c0.2-1,0.8-1.6,1.7-1.6c0.2,0,0.3,0,0.4,0l0.2,0V23.2z"/>
		<path class="st3" d="M100,23.1c-2.1,0-3.6,1.7-3.6,4.1c0,2.3,1.5,3.9,3.8,3.9c1.2,0,2-0.3,2.5-0.5l0.1,0l-0.3-1.2l-0.1,0.1
			c-0.4,0.2-1,0.4-2,0.4c-0.7,0-2.3-0.2-2.4-2.3l5.2,0l0-0.1c0-0.2,0-0.4,0-0.7C103.1,25,102.3,23.1,100,23.1z M99.9,24.3
			c0.5,0,0.9,0.2,1.2,0.4c0.5,0.5,0.5,1.2,0.6,1.5h-3.6C98.1,25.3,98.7,24.3,99.9,24.3z"/>
	</g>
</g>
</svg>
