<svg xmlns="http://www.w3.org/2000/svg" width="128.527" height="59.146" viewBox="0 0 128.527 59.146">
  <g id="Сгруппировать_9832" data-name="Сгруппировать 9832" transform="translate(-89 -64.854)">
    <path id="Контур_22191" data-name="Контур 22191" d="M167.849-4181.9c-14.819,0-25.6-7.786-38.161-7.786-12.584,0-30.723,10.464-30.723,24.642,0,7.739,6.975,18.448,20,18.448,7.144,0,14-2.333,21.251-2.333,19.233,0,18.294,17.931,43.112,17.931,14.468,0,44.165-9.063,44.165-35.534,0-20.084-14.233-23.422-24.444-23.608C190.134-4190.375,182.729-4181.9,167.849-4181.9Z" transform="translate(-9.964 4255)" fill="#e6575d"/>
    <g id="Сгруппировать_7658" data-name="Сгруппировать 7658" transform="translate(92 73.894)">
      <g id="Сгруппировать_7637" data-name="Сгруппировать 7637" transform="translate(35.931 24.113)">
        <path id="Контур_21852" data-name="Контур 21852" d="M136.554-4146a1.932,1.932,0,0,1,.609-1.474,2.122,2.122,0,0,1,1.511-.572,2.12,2.12,0,0,1,1.51.572,1.932,1.932,0,0,1,.609,1.474,1.976,1.976,0,0,1-.613,1.494,2.1,2.1,0,0,1-1.506.585,2.1,2.1,0,0,1-1.506-.585A1.973,1.973,0,0,1,136.554-4146Zm1.283-.877a1.384,1.384,0,0,0-.292.877,1.419,1.419,0,0,0,.292.886.992.992,0,0,0,.837.381.991.991,0,0,0,.836-.381,1.419,1.419,0,0,0,.293-.886,1.384,1.384,0,0,0-.293-.877,1,1,0,0,0-.836-.374A1,1,0,0,0,137.837-4146.878Z" transform="translate(-136.554 4149.817)" fill="#fff"/>
        <path id="Контур_21853" data-name="Контур 21853" d="M148.564-4144.009v-3.9h.975v1.471h1.641v-1.471h.974v3.9h-.974v-1.648h-1.641v1.648Z" transform="translate(-138.833 4149.791)" fill="#fff"/>
        <path id="Контур_21854" data-name="Контур 21854" d="M161.476-4143.96a1.964,1.964,0,0,1-.584-.065l.073-.8a.8.8,0,0,0,.26.041.614.614,0,0,0,.568-.382,3.266,3.266,0,0,0,.2-1.355v-1.39h3.192v3.9h-.975v-3.119h-1.283v.828a3.473,3.473,0,0,1-.35,1.771A1.193,1.193,0,0,1,161.476-4143.96Z" transform="translate(-141.171 4149.791)" fill="#fff"/>
        <path id="Контур_21855" data-name="Контур 21855" d="M195.016-4144.009v-3.9h.975v1.471h1.641v-1.471h.974v3.9h-.974v-1.648h-1.641v1.648Z" transform="translate(-147.645 4149.791)" fill="#fff"/>
        <path id="Контур_21856" data-name="Контур 21856" d="M183.165-4144.45v-3.9h.974v2.518h.017l1.7-2.518h1.056v3.9h-.975v-2.5h-.016l-1.689,2.5Zm1.86-4.581a1.217,1.217,0,0,1-.869-.3,1.362,1.362,0,0,1-.4-.84l.528-.057a.605.605,0,0,0,.24.422.818.818,0,0,0,.5.146.837.837,0,0,0,.5-.146.6.6,0,0,0,.244-.422l.519.1a1.235,1.235,0,0,1-.39.808A1.27,1.27,0,0,1,185.025-4149.03Z" transform="translate(-145.397 4150.232)" fill="#fff"/>
        <path id="Контур_21857" data-name="Контур 21857" d="M174.323-4144.035v-.5H174.3a1.08,1.08,0,0,1-.475.426,1.607,1.607,0,0,1-.735.167,1.8,1.8,0,0,1-1.011-.3,1.017,1.017,0,0,1-.451-.914,1.017,1.017,0,0,1,.166-.581,1.186,1.186,0,0,1,.418-.386,2.406,2.406,0,0,1,.63-.224,4.925,4.925,0,0,1,.715-.11q.337-.023.751-.024v-.1a.62.62,0,0,0-.252-.528,1.054,1.054,0,0,0-.641-.187,1.455,1.455,0,0,0-1.064.446l-.5-.593a2.337,2.337,0,0,1,1.649-.617,2.306,2.306,0,0,1,.856.142,1.233,1.233,0,0,1,.54.39,1.581,1.581,0,0,1,.263.521,2.134,2.134,0,0,1,.078.588v2.372Zm-.016-1.641v-.138h-.219q-1.486,0-1.487.65a.4.4,0,0,0,.2.373.96.96,0,0,0,.483.114,1.029,1.029,0,0,0,.759-.264A.994.994,0,0,0,174.307-4145.676Z" transform="translate(-143.208 4149.817)" fill="#fff"/>
      </g>
      <g id="Сгруппировать_7639" data-name="Сгруппировать 7639" transform="translate(11.363 10.177)">
        <g id="Сгруппировать_7638" data-name="Сгруппировать 7638">
          <path id="Контур_21858" data-name="Контур 21858" d="M106.234-4157.87v-9.561h1.7v4.133h.041l4-4.133h2.3l-4.47,4.416,4.767,5.146h-2.39l-4.2-4.794h-.041v4.794Z" transform="translate(-106.234 4167.431)" fill="#fff"/>
          <path id="Контур_21859" data-name="Контур 21859" d="M119.382-4157.87v-9.561h3.726a3.555,3.555,0,0,1,2.073.594,2.054,2.054,0,0,1,.858,1.81,2.011,2.011,0,0,1-.446,1.323,2.422,2.422,0,0,1-1.215.77v.027a2.432,2.432,0,0,1,1.5.716,2.139,2.139,0,0,1,.567,1.539,2.69,2.69,0,0,1-.3,1.3,2.228,2.228,0,0,1-.831.872,4.153,4.153,0,0,1-1.148.458,5.7,5.7,0,0,1-1.336.149Zm1.7-8.157v2.485H122.6a2.121,2.121,0,0,0,1.3-.338,1.132,1.132,0,0,0,.446-.958.981.981,0,0,0-.459-.912,2.861,2.861,0,0,0-1.431-.277Zm0,3.943v2.782h1.526q2.133,0,2.133-1.431a1.128,1.128,0,0,0-.5-1.04,3.046,3.046,0,0,0-1.566-.311Z" transform="translate(-108.728 4167.431)" fill="#fff"/>
          <path id="Контур_21860" data-name="Контур 21860" d="M130.4-4157.87l4.159-9.561h1.471l4.119,9.561H138.2l-.891-2.188h-4.145l-.864,2.188Zm3.349-3.646h2.97l-1.471-3.889Z" transform="translate(-110.818 4167.431)" fill="#fff"/>
          <path id="Контур_21861" data-name="Контур 21861" d="M145.261-4157.87v-9.561h3.12q3.6,0,3.6,2.769a2.4,2.4,0,0,1-1.026,2.161,4.816,4.816,0,0,1-2.687.675h-1.31v3.957Zm1.7-5.389h1.189q2.12,0,2.12-1.4a1.07,1.07,0,0,0-.561-1.053A3.354,3.354,0,0,0,148.2-4166h-1.242Z" transform="translate(-113.638 4167.431)" fill="#fff"/>
          <path id="Контур_21862" data-name="Контур 21862" d="M158.79-4157.87v-8.076h-2.93v-1.485h7.562v1.485h-2.93v8.076Z" transform="translate(-115.649 4167.431)" fill="#fff"/>
          <path id="Контур_21863" data-name="Контур 21863" d="M168.225-4157.87v-9.561h7.791v9.561h-1.7v-8.076h-4.389v8.076Z" transform="translate(-117.995 4167.431)" fill="#fff"/>
          <path id="Контур_21864" data-name="Контур 21864" d="M182.057-4157.776a3.976,3.976,0,0,1-1.134-.135l.175-1.5a1.814,1.814,0,0,0,.581.095,1.546,1.546,0,0,0,1.465-1.188,13.318,13.318,0,0,0,.452-4.2v-2.728h6.576v9.561h-1.7v-8.076h-3.24v1.472a13,13,0,0,1-.736,5.111A2.51,2.51,0,0,1,182.057-4157.776Z" transform="translate(-120.404 4167.431)" fill="#fff"/>
          <path id="Контур_21865" data-name="Контур 21865" d="M195.171-4157.87l4.158-9.561H200.8l4.118,9.561h-1.944l-.891-2.188h-4.145l-.865,2.188Zm3.348-3.646h2.971l-1.472-3.889Z" transform="translate(-123.107 4167.431)" fill="#fff"/>
          <path id="Контур_21866" data-name="Контур 21866" d="M210.732-4157.87v-8.076H207.8v-1.485h7.562v1.485h-2.93v8.076Z" transform="translate(-125.503 4167.431)" fill="#fff"/>
          <path id="Контур_21867" data-name="Контур 21867" d="M217.734-4157.87l4.159-9.561h1.471l4.119,9.561h-1.945l-.891-2.188H220.5l-.864,2.188Zm3.349-3.646h2.971l-1.471-3.889Z" transform="translate(-127.387 4167.431)" fill="#fff"/>
        </g>
      </g>
      <path id="Контур_21868" data-name="Контур 21868" d="M215.033-4179.991H92.21v30.009h29.263v-1.649H93.859v-26.711H213.384v26.711H185.77v1.649h29.263Z" transform="translate(-92.21 4179.991)" fill="#fff"/>
    </g>
  </g>
</svg>
