<svg xmlns="http://www.w3.org/2000/svg" width="159" height="38.848" viewBox="0 0 159 38.848">
  <g id="Сгруппировать_9832" data-name="Сгруппировать 9832" transform="translate(0 0)">
    <g id="Сгруппировать_7658" data-name="Сгруппировать 7658" transform="translate(0 0)">
      <g id="Сгруппировать_7637" data-name="Сгруппировать 7637" transform="translate(46.515 31.216)">
        <path id="Контур_21852" data-name="Контур 21852" d="M136.554-4145.4a2.5,2.5,0,0,1,.788-1.907,2.749,2.749,0,0,1,1.956-.741,2.746,2.746,0,0,1,1.955.741,2.5,2.5,0,0,1,.788,1.907,2.558,2.558,0,0,1-.793,1.935,2.721,2.721,0,0,1-1.95.757,2.719,2.719,0,0,1-1.95-.757A2.555,2.555,0,0,1,136.554-4145.4Zm1.66-1.135a1.8,1.8,0,0,0-.379,1.135,1.833,1.833,0,0,0,.379,1.146,1.283,1.283,0,0,0,1.084.494,1.283,1.283,0,0,0,1.082-.494,1.833,1.833,0,0,0,.379-1.146,1.8,1.8,0,0,0-.379-1.135,1.3,1.3,0,0,0-1.082-.483A1.3,1.3,0,0,0,138.215-4146.535Z" transform="translate(-136.554 4150.34)" fill="#223773"/>
        <path id="Контур_21853" data-name="Контур 21853" d="M148.564-4142.862v-5.046h1.262V-4146h2.124v-1.905h1.261v5.046H151.95V-4145h-2.124v2.134Z" transform="translate(-135.966 4150.347)" fill="#223773"/>
        <path id="Контур_21854" data-name="Контур 21854" d="M161.648-4142.8a2.582,2.582,0,0,1-.756-.083l.094-1.032a1.04,1.04,0,0,0,.337.053.793.793,0,0,0,.735-.495,4.216,4.216,0,0,0,.253-1.752v-1.8h4.132v5.046h-1.262v-4.037h-1.661v1.072a4.5,4.5,0,0,1-.453,2.293A1.545,1.545,0,0,1,161.648-4142.8Z" transform="translate(-135.363 4150.347)" fill="#223773"/>
        <path id="Контур_21855" data-name="Контур 21855" d="M195.016-4142.862v-5.046h1.262V-4146H198.4v-1.905h1.261v5.046H198.4V-4145h-2.124v2.134Z" transform="translate(-133.692 4150.347)" fill="#223773"/>
        <path id="Контур_21856" data-name="Контур 21856" d="M183.165-4142.747v-5.047h1.261v3.259h.022l2.207-3.259h1.367v5.047H186.76v-3.239h-.021l-2.186,3.239Zm2.407-5.93a1.577,1.577,0,0,1-1.124-.4,1.761,1.761,0,0,1-.516-1.088l.684-.073a.781.781,0,0,0,.31.546,1.059,1.059,0,0,0,.646.189,1.083,1.083,0,0,0,.651-.189.776.776,0,0,0,.316-.546l.672.136a1.6,1.6,0,0,1-.5,1.046A1.649,1.649,0,0,1,185.572-4148.677Z" transform="translate(-134.272 4150.232)" fill="#223773"/>
        <path id="Контур_21857" data-name="Контур 21857" d="M175.117-4142.854v-.642h-.031a1.391,1.391,0,0,1-.615.551,2.062,2.062,0,0,1-.951.217,2.327,2.327,0,0,1-1.309-.384,1.315,1.315,0,0,1-.583-1.182,1.316,1.316,0,0,1,.215-.751,1.53,1.53,0,0,1,.541-.5,3.089,3.089,0,0,1,.815-.289,6.261,6.261,0,0,1,.925-.143q.436-.031.972-.031v-.125a.8.8,0,0,0-.326-.685,1.372,1.372,0,0,0-.83-.241,1.888,1.888,0,0,0-1.377.578l-.652-.768a3.027,3.027,0,0,1,2.135-.8,2.994,2.994,0,0,1,1.109.183,1.594,1.594,0,0,1,.7.5,2.049,2.049,0,0,1,.341.674,2.758,2.758,0,0,1,.1.761v3.071Zm-.021-2.125v-.177h-.283q-1.924,0-1.925.842a.511.511,0,0,0,.258.482,1.241,1.241,0,0,0,.625.147,1.336,1.336,0,0,0,.983-.34A1.292,1.292,0,0,0,175.1-4144.979Z" transform="translate(-134.837 4150.34)" fill="#223773"/>
      </g>
      <g id="Сгруппировать_7639" data-name="Сгруппировать 7639" transform="translate(14.71 13.174)">
        <g id="Сгруппировать_7638" data-name="Сгруппировать 7638">
          <path id="Контур_21858" data-name="Контур 21858" d="M106.234-4155.054v-12.377h2.2v5.35h.052l5.173-5.35h2.972l-5.786,5.716,6.171,6.661h-3.094l-5.436-6.207h-.052v6.207Z" transform="translate(-106.234 4167.431)" fill="#223773"/>
          <path id="Контур_21859" data-name="Контур 21859" d="M119.382-4155.054v-12.377h4.824a4.606,4.606,0,0,1,2.683.767A2.662,2.662,0,0,1,128-4164.32a2.6,2.6,0,0,1-.577,1.712,3.134,3.134,0,0,1-1.573,1v.035a3.157,3.157,0,0,1,1.941.926,2.774,2.774,0,0,1,.734,1.994,3.485,3.485,0,0,1-.393,1.687,2.876,2.876,0,0,1-1.075,1.128,5.377,5.377,0,0,1-1.486.593,7.333,7.333,0,0,1-1.73.194Zm2.2-10.56v3.216h1.957a2.748,2.748,0,0,0,1.678-.436,1.466,1.466,0,0,0,.577-1.241,1.272,1.272,0,0,0-.595-1.182,3.705,3.705,0,0,0-1.852-.358Zm0,5.1v3.6h1.975q2.761,0,2.762-1.851a1.459,1.459,0,0,0-.647-1.346,3.945,3.945,0,0,0-2.028-.4Z" transform="translate(-105.59 4167.431)" fill="#223773"/>
          <path id="Контур_21860" data-name="Контур 21860" d="M130.4-4155.054l5.384-12.377h1.9l5.332,12.377H140.5l-1.154-2.833H133.98l-1.118,2.833Zm4.335-4.722h3.845l-1.9-5.033Z" transform="translate(-105.051 4167.431)" fill="#223773"/>
          <path id="Контур_21861" data-name="Контур 21861" d="M145.261-4155.054v-12.377H149.3q4.667,0,4.667,3.583a3.1,3.1,0,0,1-1.328,2.8,6.239,6.239,0,0,1-3.478.874h-1.7v5.123Zm2.2-6.978H149q2.744,0,2.744-1.815a1.386,1.386,0,0,0-.726-1.363,4.343,4.343,0,0,0-1.949-.368h-1.608Z" transform="translate(-104.324 4167.431)" fill="#223773"/>
          <path id="Контур_21862" data-name="Контур 21862" d="M159.653-4155.054v-10.455H155.86v-1.922h9.789v1.922h-3.793v10.455Z" transform="translate(-103.805 4167.431)" fill="#223773"/>
          <path id="Контур_21863" data-name="Контур 21863" d="M168.225-4155.054v-12.377h10.086v12.377h-2.2v-10.455h-5.681v10.455Z" transform="translate(-103.199 4167.431)" fill="#223773"/>
          <path id="Контур_21864" data-name="Контур 21864" d="M182.392-4154.933a5.14,5.14,0,0,1-1.469-.174l.227-1.94a2.365,2.365,0,0,0,.752.121,2,2,0,0,0,1.9-1.538,17.249,17.249,0,0,0,.585-5.437v-3.53H192.9v12.377h-2.2v-10.455H186.5v1.905a16.824,16.824,0,0,1-.952,6.616A3.249,3.249,0,0,1,182.392-4154.933Z" transform="translate(-102.578 4167.431)" fill="#223773"/>
          <path id="Контур_21865" data-name="Контур 21865" d="M195.171-4155.054l5.383-12.377h1.906l5.331,12.377h-2.516l-1.154-2.833h-5.366l-1.119,2.833Zm4.334-4.722h3.846l-1.906-5.033Z" transform="translate(-101.88 4167.431)" fill="#223773"/>
          <path id="Контур_21866" data-name="Контур 21866" d="M211.6-4155.054v-10.455H207.8v-1.922h9.789v1.922H213.8v10.455Z" transform="translate(-101.262 4167.431)" fill="#223773"/>
          <path id="Контур_21867" data-name="Контур 21867" d="M217.734-4155.054l5.384-12.377h1.9l5.332,12.377h-2.518l-1.154-2.833h-5.366l-1.118,2.833Zm4.335-4.722h3.845l-1.9-5.033Z" transform="translate(-100.776 4167.431)" fill="#223773"/>
        </g>
      </g>
      <path id="Контур_21868" data-name="Контур 21868" d="M251.21-4179.992h-159v38.848h37.883v-2.134H94.344v-34.578H249.076v34.578H213.328v2.134H251.21Z" transform="translate(-92.21 4179.992)" fill="#223773"/>
    </g>
  </g>
</svg>
