<svg xmlns="http://www.w3.org/2000/svg" xmlns:xlink="http://www.w3.org/1999/xlink" width="442.556" height="214.157" xmlns:v="https://vecta.io/nano"><style><![CDATA[.B{fill:#ebebeb}.C{fill:#e0e0e0}.D{fill:#fafafa}.E{fill:#263238}.F{fill:#0a2a61}]]></style><g opacity=".6"><path d="M104.669 122.68l-53.46 28.894a7.6 7.6 0 0 1-10.3-3.073L.916 74.511a7.6 7.6 0 0 1 3.074-10.3l33.9-18.324L78.753 58.75l28.988 53.63a7.6 7.6 0 0 1-3.072 10.3z" class="B"/><g class="D"><path d="M72.009 94.369c-.021-.036.438-.255 1.16-.869 1.033-.919 1.778-2.118 2.145-3.451a6.96 6.96 0 0 0 .146-2.933c-.091-.555-.249-1.098-.469-1.616-.242-.526-.551-1.071-.862-1.636l-4.205-7.681-2.44-4.47-1.3-2.379a12.16 12.16 0 0 0-1.477-2.316c-1.957-2.24-5.018-3.171-7.89-2.4a12.52 12.52 0 0 0-2.821 1.282l-24.5 13.312a7.5 7.5 0 0 0-3.287 5.921c-.053 1.151.17 2.299.652 3.346l1.642 3.1 6.386 11.853 1.528 2.748c1.697 2.45 4.751 3.566 7.628 2.789a11.6 11.6 0 0 0 2.5-1.129l2.388-1.28 4.49-2.4 13.569-7.218 3.7-1.934.971-.489c.108-.061.222-.11.341-.147-.095.079-.199.146-.31.2l-.941.545-3.647 2.04-13.471 7.4-6.849 3.74c-.816.499-1.689.898-2.6 1.19a7.6 7.6 0 0 1-8.246-2.974c-.609-.925-1.037-1.851-1.572-2.795l-6.419-11.835-1.667-3.139a7.85 7.85 0 0 1-.712-3.632c.099-2.589 1.426-4.976 3.573-6.427l24.574-13.3a13.03 13.03 0 0 1 2.952-1.32c3.081-.816 6.358.196 8.442 2.608a12.62 12.62 0 0 1 1.527 2.42l1.28 2.387q1.252 2.342 2.4 4.49l4.122 7.727.852 1.676a7.27 7.27 0 0 1 .465 1.7 7.09 7.09 0 0 1-2.509 6.529c-.376.312-.793.57-1.239.767z"/><path d="M76.114 87.623c-.208-.036-.41-.101-.6-.192l-1.679-.665-6.128-2.559-7.787-3.317a2.09 2.09 0 0 0-1.185-.1 2.13 2.13 0 0 0-1.663 1.663q-.242 1.431-.491 2.917l-1.036 6.157-.528 3.108-.342-.1-5.539-1.563-1.324-.376a3.39 3.39 0 0 0-1.221-.215 2.31 2.31 0 0 0-1.883 1.164 4.71 4.71 0 0 0-.387 1.113l-.331 1.172q-.327 1.152-.633 2.235l-1.142 4-1.683 5.739-.485 1.543a2.01 2.01 0 0 1-.208.526 1.98 1.98 0 0 1 .09-.558l.374-1.574 1.494-5.792 1.666-6.26q.156-.579.316-1.176a5.2 5.2 0 0 1 .427-1.245c.48-.861 1.364-1.419 2.348-1.48a3.94 3.94 0 0 1 1.42.227l1.326.367 5.545 1.541-.4.255.465-2.758 1.049-6.155q.259-1.494.511-2.936c.226-1.073 1.07-1.907 2.146-2.119a2.67 2.67 0 0 1 1.51.138l1.236.538q1.2.534 2.336 1.035l4.188 1.867 6.047 2.745 1.631.777a2.38 2.38 0 0 1 .55.313zM47.46 84.459c-.028-.049.278-.225.706-.66a3.95 3.95 0 0 0 1.093-2.244c.162-1.241-.306-2.482-1.249-3.306a3.67 3.67 0 0 0-6.046 3.268c.173 1.24.954 2.312 2.082 2.856a3.95 3.95 0 0 0 2.475.315 8.4 8.4 0 0 1 .939-.229c.017.026-.259.266-.877.471a3.94 3.94 0 0 1-2.724-.144c-1.32-.563-2.257-1.765-2.48-3.182a4.23 4.23 0 0 1 7.024-3.8 4.16 4.16 0 0 1 1.3 3.817c-.162.924-.648 1.761-1.372 2.358-.507.409-.858.508-.871.48z"/></g><path d="M30.196 128.681l66.833-36.124 11.305 20.914a6.36 6.36 0 0 1-2.57 8.618l-55.645 30.077a6.36 6.36 0 0 1-8.618-2.57l-11.305-20.914z" class="C"/><path d="M37.891 45.883l11.256 20.823a7.07 7.07 0 0 0 9.582 2.859l20.025-10.819z" class="B"/><path d="M50.409 68.386s2.466 5.193 9.113 3.745a7.3 7.3 0 0 0 .739-.207c2.867-.946 21.732-7.187 21.518-7.582l-3.024-5.6-20.024 10.827s-5.091 2.531-8.322-1.183z" class="C"/><path d="M64.278 126.154l2.2-1.188 2.279 4.217a8.16 8.16 0 0 1-3.488 3.593c-3.267 1.766-6.884.824-8.578-2.309s-.5-6.676 2.812-8.465a6.29 6.29 0 0 1 5.322-.555l-.774 2.26a4 4 0 0 0-3.323.279 3.78 3.78 0 0 0 3.567 6.669 4.34 4.34 0 0 0 1.63-1.457zm1.698-7.423l2.406-1.3L74 127.823l-2.405 1.3zm8.316-2.001l1.485 2.748 4.812-2.6 1.044 1.93-4.813 2.6 2.047 3.787-2.4 1.3-5.619-10.395 7.856-4.246 1.043 1.93z" class="D"/><path d="M361.696 174.668l-37.775-18.25a5.25 5.25 0 0 1-2.442-7.01l25.261-52.285a5.25 5.25 0 0 1 7.01-2.443l23.959 11.574 9.31 28.073-18.31 37.896a5.25 5.25 0 0 1-7.013 2.445z" class="B"/><g class="D"><path d="M364.348 144.944c.011-.027.319.142.955.3a4.94 4.94 0 0 0 2.8-.194c1.008-.384 1.859-1.094 2.416-2.018.2-.349.377-.742.568-1.144l2.6-5.458q.725-1.516 1.517-3.172l.807-1.687c.3-.559.535-1.151.7-1.763a5.38 5.38 0 0 0-1.846-5.386c-.573-.429-1.197-.785-1.857-1.061l-17.352-8.338c-1.547-.566-3.272-.363-4.644.549a4.97 4.97 0 0 0-1.609 1.717l-1.073 2.172-4.056 8.364-.92 1.966c-.687 1.94-.078 4.103 1.52 5.4.509.378 1.06.695 1.643.943l4.841 2.362 9.524 4.68 2.579 1.292.666.346a1.17 1.17 0 0 1 .221.132 1.07 1.07 0 0 1-.24-.091l-.686-.306-2.615-1.218-12.757-6.069-1.687-.808c-.609-.256-1.186-.584-1.718-.977a5.24 5.24 0 0 1-1.667-5.817c.271-.715.617-1.329.929-2.01l4.032-8.375 1.084-2.2a5.42 5.42 0 0 1 1.745-1.866c1.489-.992 3.362-1.215 5.042-.6l17.375 8.383c.688.292 1.337.668 1.932 1.12 1.701 1.396 2.458 3.639 1.95 5.78a8.68 8.68 0 0 1-.737 1.832l-.82 1.682-1.542 3.159-2.66 5.43-.594 1.155c-.216.345-.472.662-.763.946a4.9 4.9 0 0 1-4.669 1.234c-.328-.085-.642-.215-.934-.386z"/><path d="M369.782 144.523a1.6 1.6 0 0 1-.136-.415l-.306-1.21-1.044-4.464-.7-3.088q-.187-.834-.386-1.721-.1-.439-.2-.891a1.44 1.44 0 0 0-.425-.7 1.47 1.47 0 0 0-1.6-.259l-1.832.9-3.865 1.908-1.953.96-1.447-3.962q-.165-.451-.325-.893c-.076-.278-.202-.539-.373-.771a1.6 1.6 0 0 0-1.412-.584 3.37 3.37 0 0 0-.78.233l-.79.289-1.507.549-2.7.975-3.892 1.374-1.06.353a1.38 1.38 0 0 1-.378.1c.108-.074.225-.133.349-.175l1.032-.426 3.846-1.5 2.679-1.026 1.5-.57.786-.3a3.62 3.62 0 0 1 .87-.264 2 2 0 0 1 1.777.717 2.73 2.73 0 0 1 .447.886l.33.891q.666 1.8 1.378 3.727l-.3-.122 1.731-.853 3.87-1.9 1.85-.9c.692-.307 1.501-.172 2.054.345a1.84 1.84 0 0 1 .533.9q.1.461.2.909.188.89.365 1.726l.647 3.1.906 4.495.225 1.227c.031.141.043.286.036.43zm-9.804-17.325c.22.031.439.074.654.129a2.72 2.72 0 0 0 1.7-.3 2.58 2.58 0 0 0 1.346-2.034 2.53 2.53 0 0 0-4.273-2.065 2.59 2.59 0 0 0-.757 2.32 2.73 2.73 0 0 0 .824 1.513c.309.287.525.4.508.433a1.25 1.25 0 0 1-.619-.3 2.72 2.72 0 0 1-1.02-1.583c-.218-.966.076-1.976.779-2.674a2.92 2.92 0 0 1 4.964 2.4 2.88 2.88 0 0 1-1.61 2.273 2.72 2.72 0 0 1-1.875.184c-.435-.121-.632-.277-.621-.296z"/></g><path d="M328.245 135.402l47.206 22.816-6.284 13.001a6.36 6.36 0 0 1-8.488 2.953l-35.76-17.284a6.36 6.36 0 0 1-2.959-8.486l6.284-13.001z" class="C"/><path d="M377.709 106.254l-7.11 14.715a4.88 4.88 0 0 0 2.272 6.52l14.148 6.838z" class="B"/><path d="M370.166 122.354a5.43 5.43 0 0 0 1.586 6.615 5.1 5.1 0 0 0 .415.33c1.688 1.223 12.8 9.262 12.939 8.982l1.911-3.954-14.149-6.836s-3.475-1.827-2.702-5.137z" class="C"/><path d="M343.431 153.46l1.553.751-1.44 2.98a5.63 5.63 0 0 1-3.42-.5c-1.447-.605-2.44-1.961-2.579-3.523s.598-3.072 1.915-3.924a4.22 4.22 0 0 1 4.364-.134c1.189.507 2.091 1.516 2.461 2.755l-1.578.48a2.76 2.76 0 0 0-1.5-1.747 2.61 2.61 0 0 0-2.293 4.691c.456.232.964.344 1.475.324zm4.842-2.048l1.7.821-3.549 7.345-1.7-.821zm4.48 3.847l-.938 1.941 3.4 1.643-.659 1.364-3.4-1.643-1.293 2.676-1.7-.821 3.549-7.345 5.551 2.682-.654 1.367z" class="D"/><use xlink:href="#B" class="F"/><use xlink:href="#B" opacity=".3"/><path d="M82.126 187.087L72.232 11.943l245.2-3.709 8.6 175.527z" class="C"/><g class="B"><use xlink:href="#C"/><use xlink:href="#C" x="6.363"/><path d="M93.734 19.123c-.069.889-.834 1.561-1.724 1.515s-1.582-.793-1.559-1.684.752-1.602 1.644-1.602a1.71 1.71 0 0 1 1.639 1.771zm75.166 0l14.791 87.9L67.32 124.502l-14.791-87.9z"/></g><path d="M168.9 19.123l-.562.1-1.63.262-6.316.983-23.812 3.655-84 12.764.254-.33 14.825 87.894-.39-.268 116.379-17.425-.236.307-14.267-86.307-.243-1.635a70.7 70.7 0 0 0 .3 1.569l.814 4.646 3.061 17.746 10.945 64.165-.281.043-116.705 17.582-.054-.319v-.01L52.18 36.364l.3-.045L168.9 19.123z" class="E"/><path d="M70.401 118.366l108.2-16.251-12.928-76.833L57.472 41.533z" fill="#455a64"/><path d="M70.401 118.366l29.753-53.435 28.437 26.364 13.189-18.358 36.816 29.178zm62.114-64.294a8.22 8.22 0 0 1-7.164 9.329 8.58 8.58 0 0 1-9.874-6.77 8.22 8.22 0 0 1 7.165-9.328 8.58 8.58 0 0 1 9.873 6.769z" opacity=".3"/><path d="M89.201 195.392L85.889 24.98l250.783-.532-1.034 168.409z" class="B"/><path d="M100.426 31.653c-.069.888-.834 1.56-1.724 1.514s-1.581-.793-1.558-1.684.751-1.601 1.642-1.602a1.71 1.71 0 0 1 1.64 1.772zm5.878 0c-.069.889-.834 1.562-1.725 1.516s-1.583-.794-1.56-1.685.753-1.603 1.645-1.603a1.71 1.71 0 0 1 1.64 1.772zm-12.12 0c-.069.889-.834 1.56-1.724 1.514s-1.581-.793-1.558-1.684.752-1.601 1.643-1.601a1.71 1.71 0 0 1 1.639 1.772z" class="C"/><path d="M95.033 199.549V37.523l249.75-.524-13.41 166.037z" class="D"/><path d="M82.876 181.613L97.809 59.859c1.168-9.521 7.948-16.573 15.933-16.573H341.86c9.654 0 17.139 10.167 15.991 21.721l-11.947 120.289c-3.495 25.019-13.1 28.6-26.739 28.6H105.99c-14.265.001-28.071-3.581-23.114-32.283z" fill="#223773"/><path d="M223.026 114.192c-10 0-17.283-5.257-25.763-5.257-8.5 0-20.742 7.065-20.742 16.637.402 7.115 6.379 12.626 13.503 12.451 4.823 0 9.451-1.575 14.347-1.575 12.984 0 12.351 12.105 29.106 12.105 9.767 0 29.817-6.118 29.817-23.99 0-13.559-9.609-15.812-16.5-15.938-8.722-.155-13.722 5.567-23.768 5.567z" fill="#e6575d"/><path d="M202.809 133.584a1.3 1.3 0 0 1 .411-.995 1.54 1.54 0 0 1 2.04 0c.274.257.423.62.411.995.012.38-.139.747-.414 1.009-.576.527-1.458.527-2.034 0-.275-.262-.426-.629-.414-1.009zm.866-.592c-.133.168-.203.378-.2.592-.003.217.067.429.2.6a.75.75 0 0 0 1.13 0c.133-.171.203-.383.2-.6a.94.94 0 0 0-.2-.592.76.76 0 0 0-1.13 0zm5.698 1.919v-2.633h.659v.993h1.108v-.993h.657v2.633h-.657v-1.113h-1.108v1.113zm7.136.033a1.34 1.34 0 0 1-.394-.044l.049-.54c.057.019.116.028.176.028.168 0 .32-.102.383-.258a2.21 2.21 0 0 0 .135-.915v-.938h2.155v2.633h-.658v-2.106h-.866v.559a2.36 2.36 0 0 1-.236 1.2.81.81 0 0 1-.744.381zm18.276-.033v-2.633h.658v.993h1.108v-.993h.658v2.633h-.658v-1.113h-1.108v1.113zm-6.483 0v-2.633h.657v1.7h.012l1.148-1.7h.713v2.633h-.659v-1.688h-.01l-1.141 1.688zm1.256-3.093a.82.82 0 0 1-.587-.2.92.92 0 0 1-.27-.567l.356-.038c.012.113.071.216.162.285a.55.55 0 0 0 .338.1c.12.003.239-.032.338-.1a.41.41 0 0 0 .164-.285l.351.067a.84.84 0 0 1-.264.546.86.86 0 0 1-.588.2zm-5.749 3.093v-.338h-.015c-.076.126-.187.226-.321.287a1.07 1.07 0 0 1-.5.113 1.21 1.21 0 0 1-.683-.2c-.314-.237-.397-.674-.192-1.01a.79.79 0 0 1 .282-.26c.134-.07.277-.121.425-.152a3.44 3.44 0 0 1 .483-.074l.507-.016v-.068c.007-.14-.057-.273-.17-.356a.71.71 0 0 0-.433-.126.98.98 0 0 0-.718.3l-.338-.4c.466-.401 1.111-.523 1.692-.321a.84.84 0 0 1 .364.263c.081.105.141.225.178.352a1.44 1.44 0 0 1 .052.4v1.6zm-.01-1.108v-.094h-.148q-1 0-1 .439c-.007.103.045.201.135.252a.65.65 0 0 0 .326.077c.188.012.373-.052.512-.179a.67.67 0 0 0 .179-.495zm-37.582-5.749v-6.455h1.148v2.79h.028l2.7-2.79h1.553l-3.018 2.981 3.219 3.474h-1.614l-2.835-3.236h-.028v3.236zm7.192 0v-6.455h2.516a2.4 2.4 0 0 1 1.4.4c.392.279.611.742.579 1.222.01.324-.096.641-.3.893-.214.253-.5.434-.82.52v.018a1.65 1.65 0 0 1 1.013.483 1.45 1.45 0 0 1 .383 1.04 1.82 1.82 0 0 1-.2.877 1.5 1.5 0 0 1-.561.589 2.81 2.81 0 0 1-.775.309 3.84 3.84 0 0 1-.9.1zm1.148-5.508v1.677h1.025a1.43 1.43 0 0 0 .877-.228c.201-.153.313-.395.3-.647a.66.66 0 0 0-.309-.616 1.94 1.94 0 0 0-.966-.187zm0 2.662v1.879h1.03q1.44 0 1.44-.967a.76.76 0 0 0-.337-.7 2.06 2.06 0 0 0-1.058-.21zm4.881 2.846l2.808-6.455h.993l2.78 6.455h-1.315l-.6-1.478h-2.8l-.584 1.478zm2.261-2.462h2.005l-.993-2.626zm5.868 2.462v-6.455h2.106q2.431 0 2.431 1.869a1.62 1.62 0 0 1-.693 1.459c-.547.327-1.178.485-1.814.456h-.888v2.671zm1.148-3.639h.8q1.431 0 1.432-.945c.029-.292-.12-.573-.379-.711a2.26 2.26 0 0 0-1.019-.194h-.84zm6.628 3.639v-5.453h-1.978v-1h5.105v1h-1.978v5.453zm4.786 0v-6.455h5.26v6.455h-1.148v-5.453h-2.963v5.453zm7.712.063a2.68 2.68 0 0 1-.766-.091l.118-1.012a1.25 1.25 0 0 0 .393.064c.473-.012.879-.34.989-.8.25-.923.352-1.881.3-2.836V121.6h4.439v6.455h-1.147v-5.452h-2.188v.994c.066 1.172-.104 2.345-.5 3.45-.264.668-.92 1.097-1.638 1.07zm7.028-.063l2.808-6.455h.993l2.78 6.455h-1.313l-.6-1.478h-2.8l-.584 1.478zm2.261-2.462h2.006l-.994-2.626zm6.627 2.462v-5.453h-1.979v-1h5.105v1h-1.974v5.453zm3.452 0l2.808-6.455h.993l2.781 6.455h-1.314l-.6-1.478h-2.8l-.583 1.478zm2.261-2.462h2.006l-.994-2.626zm11.997-10.869h-82.921v20.26h19.756v-1.114h-18.643v-18.028h80.694v18.033h-18.644v1.114h19.756z" fill="#fff"/><path d="M23.73 213.897c0-.144 93.764-.26 209.4-.26l209.424.26c0 .144-93.745.26-209.424.26-115.636 0-209.4-.116-209.4-.26z" class="E"/><path d="M41.448 154.823c2.785 1.135 4.987 3.354 6.1 6.148a19.55 19.55 0 0 1 1.269 8.732c-.316 5.733-3.219 11.67-6.439 16.424-5.039-3.908-6.566-11.146-7.11-14.866-.86-5.881 1.157-17.03 6.184-16.438m7.042 40.377a9.43 9.43 0 0 1 2.524-9.129c2.439-2.306 5.702-3.537 9.056-3.416 1.55-.109 3.069.47 4.153 1.584a4.03 4.03 0 0 1 .3 4.077 8.17 8.17 0 0 1-2.848 3.151c-4 2.849-8.4 4.871-13.184 3.733" class="F"/><g class="E"><path d="M43.356 213.023a6.75 6.75 0 0 1 .1-1.178l.4-3.2a33.13 33.13 0 0 1 2.678-10.294 20.26 20.26 0 0 1 6.805-8.128 13.73 13.73 0 0 1 2.881-1.48 8.06 8.06 0 0 1 .839-.265c.194-.053.3-.074.3-.06a21.54 21.54 0 0 0-3.855 2.048 20.91 20.91 0 0 0-6.6 8.064c-1.418 3.23-2.349 6.653-2.762 10.156l-.528 3.178a6.09 6.09 0 0 1-.258 1.159z"/><path d="M40.662 163.446a2.41 2.41 0 0 1 .088.507l.173 1.463.53 5.391c.412 4.555.894 10.856 1.269 17.825s.568 13.289.645 17.862l.05 5.416-.014 1.473c.007.172-.004.344-.034.514-.035-.168-.051-.34-.05-.512l-.064-1.472-.182-5.411-.767-17.848-1.147-17.823-.4-5.4-.094-1.47a2.43 2.43 0 0 1-.003-.515z"/></g><path d="M40.397 199.148c-1.581-6.935-6.407-12.682-12.964-15.438-1.647-.674-3.769-1.055-5.017.214s-.831 3.4-.089 5.017a18.85 18.85 0 0 0 17.982 10.682" class="F"/><path d="M28.523 189.067c.36.094.709.223 1.044.385a10.9 10.9 0 0 1 1.186.546c.446.245.982.477 1.517.834a19.3 19.3 0 0 1 1.748 1.163c.653.47 1.279.976 1.876 1.516 1.366 1.244 2.587 2.638 3.64 4.156a23.99 23.99 0 0 1 2.524 4.916 21 21 0 0 1 .7 2.31 17.8 17.8 0 0 1 .408 2.061c.09.57.15 1.145.18 1.722.04.432.053.866.037 1.3a5.61 5.61 0 0 1-.06 1.111c-.094 0-.022-1.589-.448-4.091a19.1 19.1 0 0 0-.451-2.022 21.99 21.99 0 0 0-.725-2.262c-.659-1.692-1.5-3.307-2.509-4.816a25.49 25.49 0 0 0-3.554-4.106 22.88 22.88 0 0 0-1.824-1.523c-.58-.471-1.169-.839-1.7-1.19-2.144-1.354-3.626-1.927-3.589-2.01z" class="E"/></g><defs ><path id="B" d="M80.338 182.481L42.945 24.392c-1.565-6.616.546-13.747 5.718-17.861a14.46 14.46 0 0 1 9.035-3.252L161.217.007a14.05 14.05 0 0 1 13.034 8.137l10.321 21.424 131.47.126c9.654 0 19.794 13.4 18.646 24.644l11.216 131.727c-1.621 15.879-15.641 27.832-29.276 27.832h-207.69c-14.265 0-26.318-12.438-28.6-31.416z"/><path id="C" d="M81.009 19.123c-.068.89-.833 1.562-1.724 1.517s-1.583-.793-1.56-1.685.752-1.603 1.645-1.603a1.71 1.71 0 0 1 1.64 1.771z"/></defs></svg>